<mxfile host="app.diagrams.net" modified="2022-12-19T14:02:06.381Z" agent="5.0 (X11; Linux x86_64) AppleWebKit/537.36 (KHTML, like Gecko) Chrome/108.0.0.0 Safari/537.36" etag="VsZErn7gVrZ9rW7gQ6Ve" version="20.5.3" type="github">
  <diagram id="5Xz_p5xYYElT8DIzlqW8" name="Halaman-1">
    <mxGraphModel dx="781" dy="507" grid="1" gridSize="10" guides="1" tooltips="1" connect="1" arrows="1" fold="1" page="1" pageScale="1" pageWidth="827" pageHeight="1169" math="0" shadow="0">
      <root>
        <mxCell id="0" />
        <mxCell id="1" parent="0" />
        <mxCell id="qIpuB_oIEoolCFAgJ50Z-1" value="Data Siswa" style="rounded=0;whiteSpace=wrap;html=1;" vertex="1" parent="1">
          <mxGeometry x="340" y="240" width="120" height="60" as="geometry" />
        </mxCell>
        <mxCell id="qIpuB_oIEoolCFAgJ50Z-3" value="Kelola Alumni" style="rounded=0;whiteSpace=wrap;html=1;" vertex="1" parent="1">
          <mxGeometry x="430" y="310" width="120" height="60" as="geometry" />
        </mxCell>
        <mxCell id="qIpuB_oIEoolCFAgJ50Z-4" value="Kelola Siswa Aktif" style="rounded=0;whiteSpace=wrap;html=1;" vertex="1" parent="1">
          <mxGeometry x="430" y="380" width="120" height="60" as="geometry" />
        </mxCell>
        <mxCell id="qIpuB_oIEoolCFAgJ50Z-6" value="" style="endArrow=classic;html=1;rounded=0;entryX=0.008;entryY=0.65;entryDx=0;entryDy=0;entryPerimeter=0;exitX=0.4;exitY=1.017;exitDx=0;exitDy=0;exitPerimeter=0;" edge="1" parent="1" source="qIpuB_oIEoolCFAgJ50Z-1" target="qIpuB_oIEoolCFAgJ50Z-4">
          <mxGeometry width="50" height="50" relative="1" as="geometry">
            <mxPoint x="380" y="400" as="sourcePoint" />
            <mxPoint x="430" y="350" as="targetPoint" />
          </mxGeometry>
        </mxCell>
        <mxCell id="qIpuB_oIEoolCFAgJ50Z-7" value="" style="endArrow=classic;html=1;rounded=0;entryX=0;entryY=0.5;entryDx=0;entryDy=0;exitX=0.367;exitY=0.983;exitDx=0;exitDy=0;exitPerimeter=0;" edge="1" parent="1" source="qIpuB_oIEoolCFAgJ50Z-1" target="qIpuB_oIEoolCFAgJ50Z-3">
          <mxGeometry width="50" height="50" relative="1" as="geometry">
            <mxPoint x="390" y="310" as="sourcePoint" />
            <mxPoint x="430" y="350" as="targetPoint" />
          </mxGeometry>
        </mxCell>
      </root>
    </mxGraphModel>
  </diagram>
</mxfile>
